<?xml version="1.0" standalone="no"?>
<!DOCTYPE svg PUBLIC "-//W3C//DTD SVG 1.1//EN" "http://www.w3.org/Graphics/SVG/1.1/DTD/svg11.dtd" >
<svg xmlns="http://www.w3.org/2000/svg">
<metadata>
Created by FontForge 20120731 at Wed Nov 16 20:15:41 2016
 By admin
</metadata>
<defs>
<font id="iconfont" horiz-adv-x="1024" >
  <font-face 
    font-family="iconfont"
    font-weight="500"
    font-stretch="normal"
    units-per-em="1024"
    panose-1="2 0 6 3 0 0 0 0 0 0"
    ascent="896"
    descent="-128"
    x-height="792"
    bbox="25 -128 1276 896"
    underline-thickness="0"
    underline-position="0"
    unicode-range="U+0078-E6DA"
  />
<missing-glyph 
 />
    <glyph glyph-name=".notdef" 
 />
    <glyph glyph-name=".notdef" 
 />
    <glyph glyph-name=".null" horiz-adv-x="0" 
 />
    <glyph glyph-name="nonmarkingreturn" horiz-adv-x="341" 
 />
    <glyph glyph-name="x" unicode="x" horiz-adv-x="1001" 
d="M281 543q-27 -1 -53 -1h-83q-18 0 -36.5 -6t-32.5 -18.5t-23 -32t-9 -45.5v-76h912v41q0 16 -0.5 30t-0.5 18q0 13 -5 29t-17 29.5t-31.5 22.5t-49.5 9h-133v-97h-438v97zM955 310v-52q0 -23 0.5 -52t0.5 -58t-10.5 -47.5t-26 -30t-33 -16t-31.5 -4.5q-14 -1 -29.5 -0.5
t-29.5 0.5h-32l-45 128h-439l-44 -128h-29h-34q-20 0 -45 1q-25 0 -41 9.5t-25.5 23t-13.5 29.5t-4 30v167h911zM163 247q-12 0 -21 -8.5t-9 -21.5t9 -21.5t21 -8.5q13 0 22 8.5t9 21.5t-9 21.5t-22 8.5zM316 123q-8 -26 -14 -48q-5 -19 -10.5 -37t-7.5 -25t-3 -15t1 -14.5
t9.5 -10.5t21.5 -4h37h67h81h80h64h36q23 0 34 12t2 38q-5 13 -9.5 30.5t-9.5 34.5q-5 19 -11 39h-368zM336 498v228q0 11 2.5 23t10 21.5t20.5 15.5t34 6h188q31 0 51.5 -14.5t20.5 -52.5v-227h-327z" />
    <glyph glyph-name="shezhi" unicode="&#xe603;" 
d="M883 289h76v192h-76q-58 0 -70 29t29 70l54 53l-136 136l-53 -54q-41 -41 -70 -29t-29 70v1v75h-192v-76q0 -58 -29 -70t-70 29l-53 54l-136 -136l54 -53q41 -41 29 -70t-70 -29h-76v-192h76q58 0 70 -29t-29 -70l-54 -53l136 -136l53 54q41 41 70 29t29 -70v-76h192v76
v0q0 58 29 70t70 -29l53 -54l136 136l-54 53q-41 41 -29 70t70 29v0zM512 217q-69 0 -118.5 49.5t-49.5 118.5t49.5 118.5t118.5 49.5t118.5 -49.5t49.5 -118.5t-49.5 -118.5t-118.5 -49.5v0zM512 217z" />
    <glyph glyph-name="arrow-right" unicode="&#xe688;" 
d="M307.5 681.5q-6.5 -6.5 -6.5 -16t6 -15.5l362 -362l-362 -362q-6 -6 -6 -15.5t6.5 -16t16 -6.5t15.5 6l378 378q1 2 3 4q1 2 2 5q1 2 1 5q1 5 -1 9q-1 3 -2 5q-2 2 -3 4l-378 378q-6 6 -15.5 6t-16 -6.5z" />
    <glyph glyph-name="gaofang" unicode="&#xe6b0;" 
d="M457 603v-109h-110v-110h110v-110h110v110h110v110h-110v109h-110zM923 722l-34 5q-55 9 -109.5 28t-90 37.5t-69 40.5t-43.5 30.5t-16 13.5l-3 3v0q-20 16 -46 16q-27 0 -48 -18l-2 -2q-6 -5 -16.5 -14t-43.5 -30.5t-68.5 -40t-89.5 -37t-108 -26.5l-35 -6v0
q-12 -3 -20 -12.5t-8 -22.5v-240q0 -150 94 -283t303 -279q19 -13 42 -13t41 13h1q209 145 303 278.5t94 283.5v240q0 13 -8 22.5t-20 12.5zM878 447q0 -59 -16.5 -113t-56.5 -116t-113 -130t-180 -143q-107 75 -180 143t-113 130t-56.5 116t-16.5 113v208q46 7 90.5 20
t79.5 28t67 32t55 32.5t40 28t25.5 20l8.5 7.5q6 -6 17 -15t48 -33.5t77 -45.5t101 -42.5t123 -31.5v-208z" />
    <glyph glyph-name="yuncunchu" unicode="&#xe60e;" 
d="M713 52q-19 0 -32.5 13.5t-13.5 32.5t13.5 32.5t32.5 13.5t32 -13.5t13 -32.5t-13 -32.5t-32 -13.5zM758 204h-547q-38 0 -65 -26.5t-27 -64.5v-30q0 -38 27 -65t65 -27h547q38 0 65 27t27 65v30q0 38 -27 64.5t-65 26.5zM705 334q-24 0 -48 7q-39 -24 -86 -24
q-43 0 -80 21.5t-58 57.5q-46 16 -76 54.5t-33 88.5h-22q-63 0 -91 -91l-92 -245q42 32 92 32h547q50 0 92 -32l-54 162q-40 -31 -91 -31zM571 362q-35 0 -64 20t-43 53q-41 7 -68 40t-27 76q0 39 21.5 69.5t56.5 42.5q9 49 47 81.5t87 32.5q62 0 103 -48q19 7 40 7
q33 0 61 -19.5t41 -50.5q35 -10 57 -40t22 -67q0 -45 -30 -77t-73 -35q-11 -30 -37.5 -49t-59.5 -19q-29 0 -54 15q-33 -32 -80 -32zM485 494q11 0 20.5 -7t11.5 -18q4 -20 19.5 -33t34.5 -13q33 0 49 30q8 14 24 15.5t27 -11.5q13 -17 34 -17q17 0 29.5 12t13.5 29
q2 14 12.5 22t23.5 5q5 -1 10 -1q21 0 35.5 15t14.5 37q0 20 -13 34.5t-31 16.5q-22 2 -27 24q-4 18 -18 29.5t-31 11.5t-31 -11q-11 -8 -24.5 -5t-20.5 15q-10 20 -28 31t-39 11q-31 0 -53 -23t-23 -55q0 -11 -7.5 -20t-18.5 -10q-21 -2 -35.5 -18.5t-14.5 -38.5
q0 -24 16.5 -40.5t38.5 -16.5h1z" />
    <glyph glyph-name="jiankong" unicode="&#xe604;" 
d="M599 346l-88 226l-96 -181l-54 55l-90 -56l25 -15l58 36l71 -72l81 153l90 -231l76 161l32 -66l34 5l-65 139zM867 170v469q0 13 -8.5 22.5t-20.5 9.5h-651q-12 0 -20.5 -9.5t-8.5 -22.5v-469h-96v-39q0 -13 8.5 -22t20.5 -9h846q12 0 20.5 9t8.5 22v39h-99zM574 157
h-120v21h120v-21zM807 209h-589v397h589v-397zM807 209z" />
    <glyph glyph-name="cdn" unicode="&#xe60f;" 
d="M867 615q-12 67 -34.5 89.5t-89.5 33.5q-94 17 -231.5 17t-230.5 -16q-67 -12 -89.5 -35t-33.5 -90q-17 -93 -17 -230.5t16 -230.5q12 -67 34.5 -89t89.5 -34q94 -17 231.5 -17t230.5 16q67 12 89.5 34.5t33.5 90.5q17 93 17 230.5t-16 230.5zM749 225q-5 -13 -15 -22
q-4 -5 -10 -8.5t-12.5 -6t-13.5 -4t-14 -1.5t-13.5 1.5t-13.5 4t-13 6t-12 8.5q-8 8 -14 18q-5 9 -7 19.5t-0.5 20.5t6.5 19l-54 48q-6 -3 -12.5 -5.5t-13 -4.5t-13 -3t-13.5 -1q-6 0 -11.5 1l-11 2t-11 3t-10.5 4l-59 -52q3 -8 3.5 -17.5t-1.5 -18.5t-7 -17q-6 -9 -14 -16
q-5 -5 -11 -8.5t-13 -6t-14 -4t-14 -1.5t-13.5 1.5t-13 4t-12.5 6t-11 8.5q-9 9 -14 22q-4 12 -3 24.5t7 24.5t17 21q5 4 11 7.5t12.5 6t13 3.5t13.5 1q5 0 9.5 -0.5t9 -1.5t9 -3t8.5 -4l54 47q-8 10 -12 22q-4 11 -4 23t4 23.5t12 21.5l-49 44q-4 -2 -8 -3l-8 -2t-8 -1.5
t-8 -0.5q-7 0 -13 1t-12 3t-11 5t-10 7q-9 8 -13 19q-4 10 -3 20.5t6 19.5q6 10 15 18q5 4 10.5 7t11.5 4.5t12 2.5t12.5 1t12.5 -1t11.5 -2.5t10.5 -4.5t10 -7q7 -6 11 -13t5.5 -15t0.5 -16t-6 -16l52 -44q5 2 10.5 4t11 3.5t11.5 2t12 0.5q7 0 13.5 -1t13.5 -2.5t13 -4.5
l12 -6l49 42q-6 8 -9 16.5t-2 17.5t6 17q4 9 12 15q4 4 9.5 7t11 4.5t11.5 2.5t12 1t12.5 -1t12.5 -2.5t11.5 -4.5t9.5 -7q10 -8 16 -18q5 -9 6 -19.5t-3 -20.5q-4 -11 -13 -19q-5 -4 -10 -7t-11 -5t-12.5 -3t-12.5 -1h-6t-6 0.5t-6 1.5l-6 2l-53 -47q6 -9 9 -19t3 -20
t-3 -20t-8 -19l57 -49q3 1 6.5 2t7 1.5l7 1t7.5 0.5q6 0 13 -1t13.5 -3.5t12.5 -6t11 -7.5q11 -9 17 -21t7 -24.5t-3 -24.5z" />
    <glyph glyph-name="yonghu" unicode="&#xe606;" 
d="M869 -12h-704q-12 63 7.5 120.5t59.5 98.5t91 72t102 46t92 15t91 -14.5t101 -45t91 -71.5t60 -99t9 -122zM517 296q-29 0 -69 -13t-81.5 -38t-77 -56.5t-58 -73t-22.5 -83.5h616q0 42 -22.5 83.5t-58 73t-77 56.5t-81.5 38t-69 13zM297 560q0 91 64.5 155t155.5 64
t155.5 -64t64.5 -155t-64.5 -155.5t-155.5 -64.5t-155.5 64.5t-64.5 155.5zM517 384q73 0 124.5 51.5t51.5 124.5t-51.5 124.5t-124.5 51.5t-124.5 -51.5t-51.5 -124.5t51.5 -124.5t124.5 -51.5z" />
    <glyph glyph-name="fuzaijunheng" unicode="&#xe610;" 
d="M589 282v-152l45 -24l129 73v165l-29 16zM368 528v-43l143 -77l145 76v44l-143 83zM560 302l173 96l30 -16v85l-78 44v-45l-173 -96l-173 96v45l-78 -44v-85l30 16l173 -96v-192l-41 -23l87 -51l91 51l-41 23v192zM391 106l44 23v153l-144 78l-30 -16v-163l130 -75v0z
M290 53l-144 77v152l115 62v38l-144 -80v-192l174 -96l132 73l-32 19l-101 -53v0zM763 382v-38l114 -62l1 -153l-146 -76l-98 53l-33 -19l132 -73l174 96v192zM368 638l145 77l143 -77v-110l29 -17v147l-173 96l-173 -96v-147l29 17v110z" />
    <glyph glyph-name="yunshujuku" unicode="&#xe6b3;" horiz-adv-x="1179" 
d="M186 534v2l4 6q64 104 113 183q4 7 9 7q32 0 108.5 -0.5t118.5 -0.5q5 0 8 -5q2 -2 16 -25q1 -1 24 -38l5 8q27 45 33 54q4 7 12 7q105 -1 223 0q7 0 11 -7q53 -87 113 -185q3 -5 0 -11q-64 -104 -112 -184q-4 -7 -12 -7h-89h-10q5 -9 6 -10q43 -70 56 -91q4 -6 1 -10
q-15 -24 -54 -87.5t-61 -97.5q-3 -5 -9 -5q-43 0 -123 -0.5t-104 -0.5q-6 0 -9 6q-60 97 -113 184q-4 5 0 11q5 9 32 52q4 7 30 49h-10h-90q-7 0 -10 6q-7 11 -30 48q-11 18 -87 142v0zM662 412q-8 14 -34 56t-41 63q-49 -77 -75 -119h150z" />
    <glyph glyph-name="yuangong" unicode="&#xe65c;" 
d="M343 204q30 16 70 28q18 5 37 9q-21 22 -36 53q-11 4 -20 12h-1q-9 8 -14 16q-28 41 -18 88q3 14 11 27v0q4 6 9 11q0 8 1 15q2 39 15 71q31 75 109 100q27 9 58 10h1h10q34 0 64 -8q3 0 5 -1q0 12 -2 23q-4 34 -15 62q-20 52 -63 80q-27 17 -62 25q-46 10 -96 5
q-29 -3 -55 -12q-73 -26 -104 -94q-18 -39 -22 -90q-2 -27 0 -61v-1h-0.5h-1h-1.5q-9 2 -16 -4q-4 -3 -8 -9q-4 -8 -5 -19q-4 -24 6 -49q5 -14 14 -24q6 -7 13 -10q11 -4 20 3q1 0 1.5 0.5t1.5 0.5q1 -2 1 -4q18 -47 45 -81q16 -21 35 -36q2 -1 2 -2q-1 -1 2 -4q1 -2 3 -5
t3 -5q9 -14 12 -28q5 -27 -19 -39q-2 -1 -5 -2q-2 0 -8 -1t-8 -1q-42 -6 -85 -17q-47 -13 -83 -31q-29 -15 -49 -34q-21 -19 -29 -42q-1 -3 -1 -6v-42h206v10v18q0 11 4 22v0q9 23 27 42h1q16 17 40 31v0zM702 344q1 2 2 5h1q8 -4 15 1q5 4 8 8q17 24 11 52q-1 7 -6 12
q-5 6 -13 5h-2v2v14v22q-1 24 -9 46q-9 30 -28 49q-21 22 -55 30q-26 8 -60 6q-25 0 -45 -7q-57 -18 -79 -73q-10 -24 -13 -56q-1 -16 1 -38v-3h-1v0v0h-1q-10 2 -15 -7q-4 -6 -5 -11q-6 -27 10 -50q2 -4 6 -7q10 -8 22 -1q1 -3 1 -4q1 -2 2.5 -6.5t2.5 -6.5q19 -41 49 -66
l1 -1q1 -1 4 -6q6 -9 8 -16q3 -8 3 -14q0 -8 -5.5 -14.5t-13.5 -6.5q-37 -5 -72 -15q-34 -9 -59 -23q-18 -11 -30 -23t-17 -25q-1 -3 -1 -5v-13v-13v-4h312l4 3q4 2 3 5l-1 1l-48 29l51 86q-12 8 -10 22q1 9 6 18q1 2 3.5 5.5t3.5 5.5q1 3 6 7q11 10 20 21q21 25 33 60z
M940 56q-12 22 -6 44.5t27 35.5l-31 52q-10 -8 -29 -8q-24 0 -40.5 17.5t-16.5 42.5h-60q0 -19 -7 -29q-11 -21 -35 -27t-46 6l-30 -52q13 -8 21 -21q11 -21 5 -44t-26 -36l30 -52q11 8 29 8q24 0 41 -17t17 -41h59q0 16 8 29q11 21 35 27t45 -6l31 52q-12 3 -21 19zM813 23
q-34 0 -52 29.5t-2 60.5q14 27 44 32q29 5 50 -14t21 -46q0 -25 -17.5 -43.5t-43.5 -18.5v0z" />
    <glyph glyph-name="xiaoxi" unicode="&#xe611;" horiz-adv-x="1446" 
d="M159 -12v792h1117v-792h-1117zM252 82h931v518l-462 -285l-3 4l-2 -3l-464 296v-530zM722 423l427 263h-840z" />
    <glyph glyph-name="yunfuwuqi" unicode="&#xe607;" 
d="M858 532q21 0 35.5 14.5t14.5 35.5v99q0 20 -14.5 34.5t-35.5 14.5h-692q-21 0 -35.5 -14.5t-14.5 -34.5v-99q0 -21 14.5 -35.5t35.5 -14.5h494v-49h-494q-21 0 -35.5 -14.5t-14.5 -35.5v-98q0 -21 14.5 -35.5t35.5 -14.5h494v-49h-494q-21 0 -35.5 -14.5t-14.5 -35.5
v-99q0 -20 14.5 -34.5t35.5 -14.5h692q21 0 35.5 14.5t14.5 34.5v99q0 21 -14.5 35.5t-35.5 14.5h-148v49h148q21 0 35.5 14.5t14.5 35.5v98q0 21 -14.5 35.5t-35.5 14.5h-148v49h148zM314 335h-99v98h99v-98zM314 87h-99v99h99v-99zM314 582h-99v99h99v-99z" />
    <glyph glyph-name="yanzhengma" unicode="&#xe613;" 
d="M507 -97l-11 4q-96 37 -167 82t-109.5 86t-61.5 88t-29 82.5t-6 75.5v443l30 -1q65 -2 123.5 7.5t93.5 23t64.5 30.5t38.5 25t12 12l22 23l21 -23q3 -4 11.5 -11t36 -24t60 -30t86.5 -23.5t113 -10.5h1q13 0 24 1l30 1v-443q0 -40 -6 -75.5t-29 -82.5t-61.5 -88
t-109.5 -86t-167 -82zM181 705v-384q0 -20 0.5 -33t7 -41.5t18 -51t35.5 -55t57.5 -59.5t86.5 -58t121 -58q67 27 120 58t86.5 58t58 59.5t35.5 55t17.5 51t7 41.5t0.5 33v384q-63 0 -119.5 10t-96.5 27t-65 31t-44 30q-20 -16 -45 -30t-65 -31t-96.5 -27t-119.5 -10v0z
M248 369l59 48l119 -87q7 7 19 18.5t48.5 45t73 63.5t87 64.5t94.5 57.5l23 -26q-8 -7 -22 -19t-53.5 -52t-75.5 -82.5t-78 -105t-71 -123.5zM248 369z" />
    <glyph glyph-name="dns" unicode="&#xe692;" 
d="M730 292q-11 0 -21 -4l-96 95l96 96q10 -4 21 -4q21 0 35.5 14.5t14.5 35.5t-14.5 36t-35.5 15t-36 -15t-15 -36q0 -11 5 -21l-95 -96l-36 35q12 27 -7 49v0l-1.5 1.5l-0.5 0.5v0.5v0.5h-1v0q-13 14 -32.5 14t-33.5 -14q-22 -23 -10 -52l-35 -35l-97 97q5 10 5 20
q0 21 -15 36t-36 15t-35.5 -15t-14.5 -36t14.5 -35.5t35.5 -14.5q12 0 22 5l96 -97l-96 -96q-10 5 -22 5q-21 0 -35.5 -15t-14.5 -36t14.5 -35.5t35.5 -14.5t36 14.5t15 35.5q0 11 -5 21l97 97l35 -35q-12 -30 10 -52q14 -14 33.5 -14t32.5 14v0h1v0.5v0.5l0.5 0.5l1.5 1.5
v0q19 22 7 48l36 36l95 -96q-5 -10 -5 -22q0 -21 15 -35.5t36 -14.5t35.5 14.5t14.5 35.5t-14.5 36t-35.5 15zM529 348q-19 8 -37 0l-35 35l35 36q18 -8 37 0l35 -36zM790 830h-557q-69 0 -118.5 -49.5t-49.5 -118.5v-557q0 -69 49.5 -118.5t118.5 -49.5h557
q69 0 118.5 49.5t49.5 118.5v557q0 69 -49.5 118.5t-118.5 49.5zM166 105v537l616 87h8q27 0 47 -19.5t20 -47.5v-537l-616 -87h-8q-28 0 -47.5 20t-19.5 47z" />
    <glyph glyph-name="yumingzhuce" unicode="&#xe6da;" 
d="M164 50q97 -103 233 -137q-34 82 -56 178q-92 -14 -177 -41zM328 598q-112 16 -211 49q-72 -106 -81 -235h274q3 101 18 186zM866 50q-85 27 -177 41q-22 -96 -56 -178q136 34 233 137zM719 412h275q-9 129 -81 235q-99 -33 -211 -49q15 -85 17 -186zM994 344h-275
q-2 -101 -17 -186q112 -16 211 -49q72 107 81 235zM650 344h-271q3 -96 18 -177q61 5 118 5t118 -5q15 81 17 177zM411 100q27 -110 70 -201q24 -1 34 -1t33 1q44 91 70 201q-54 4 -103 4t-104 -4zM379 412h271q-2 96 -17 177q-61 -5 -118 -5t-118 5q-15 -81 -18 -177z
M866 706q-97 103 -233 137q34 -82 56 -177q92 13 177 40zM397 843q-136 -34 -233 -137q85 -27 177 -40q22 95 56 177zM618 657q-26 109 -70 200q-25 2 -33 2t-34 -2q-43 -91 -70 -200q54 -5 104 -5q49 0 103 5zM328 158q-15 85 -18 186h-274q9 -128 81 -235q99 33 211 49z
" />
    <glyph glyph-name="shipin" unicode="&#xe612;" 
d="M62 834zM62 -13zM62 40zM62 93zM62 146zM62 199zM62 252zM62 305zM62 358zM62 410zM62 463zM62 516zM62 569zM62 622zM62 675zM62 728zM62 781zM62 -66zM62 834zM909 834zM856 834zM803 834zM750 834zM697 834zM644 834zM591 834zM538 834zM486 834zM433 834zM380 834z
M327 834zM274 834zM221 834zM168 834zM115 834zM962 834zM171 778l682 -394l-682 -394v788z" />
    <glyph glyph-name="kuaizhaobeifen" unicode="&#xe608;" 
d="M847 256q-10 0 -18 -2.5t-10 -4.5l-3 -2l-304 -145l-305 147q-9 6 -30 7q-28 4 -42 -11t-14 -38q0 -24 25 -40l334 -165h1q13 -8 31 -8q13 0 30 8h1l334 160q26 15 26 43q-1 21 -17 36t-39 15zM847 432q-10 0 -18 -2.5t-10 -4.5l-3 -2l-304 -146l-305 147q-9 6 -30 7
q-28 4 -42 -11t-14 -38q0 -24 25 -40l335 -164l1 1q13 -9 30 -9q14 0 31 9l1 -1l334 161q25 15 25 43q-1 20 -17.5 35t-38.5 15zM877 604v0l-335 165q-10 6 -30 6q-17 0 -31 -8v0l-335 -163q-25 -15 -25 -41q0 -25 25 -41v0l335 -164q12 -8 31 -8q16 0 30 8v0l335 165
q26 14 26 41q-2 26 -26 40z" />
    <glyph glyph-name="duanxin" unicode="&#xe60a;" 
d="M335 -49q-10 0 -18 4q-14 7 -18.5 22t2.5 29l68 124q10 20 33 20h455q27 0 46 19t19 46v455q0 26 -19 45t-46 19h-692q-27 0 -46 -19t-19 -45v-455q0 -27 19 -46t46 -19h75q15 0 26 -11t11 -26.5t-11 -26.5t-26 -11h-75q-58 0 -99 41t-41 99v455q0 58 41 99t99 41h692
q58 0 99 -41t41 -99v-455q0 -58 -41 -99t-99 -41h-433l-56 -105q-11 -19 -33 -19zM534 567h-297q-16 0 -27 11t-11 26.5t11 26.5t27 11h297q15 0 26 -11t11 -26.5t-11 -26.5t-26 -11zM687 400h-450q-16 0 -27 11t-11 26.5t11 26.5t27 11h450q15 0 26 -11t11 -26.5t-11 -26.5
t-26 -11z" />
    <glyph glyph-name="gongdanzhongxin" unicode="&#xe609;" 
d="M160 73h653v-81h-653v81zM159 220v-147h147l434 434l-147 147zM854 621q11 11 11 27.5t-11 27.5l-92 92q-12 12 -28 12t-27 -12l-72 -72l147 -147z" />
    <glyph glyph-name="taishi" unicode="&#xe61b;" 
d="M865 666q-39 0 -66 -28t-27 -67q0 -43 33 -72l-87 -197q-19 8 -39 8q-24 0 -46 -13l-175 179q13 23 13 48q0 39 -27 66.5t-65.5 27.5t-65.5 -27.5t-27 -66.5q0 -40 28 -68l-102 -156q-20 10 -42 10q-39 0 -66 -27.5t-27 -67t27 -67t65.5 -27.5t65.5 27.5t27 67.5
q0 28 -15 52l107 164q13 -3 24 -3q25 0 47 13l175 -178q-13 -23 -13 -48q0 -40 27 -67.5t65.5 -27.5t65.5 27.5t27 67.5q0 30 -17 55l92 207q9 -2 18 -2q38 0 65 28t27 67t-27 67t-65 28v0z" />
    <glyph glyph-name="code3" unicode="&#xe614;" horiz-adv-x="1345" 
d="M1131 644q-15 0 -26.5 11.5t-11.5 27.5q2 9 -4 16t-15 7h-836q-10 0 -16.5 -6.5t-6.5 -16.5q0 -15 -11 -27t-28 -12q-15 0 -26.5 11.5t-11.5 27.5q0 40 28.5 68.5t67.5 28.5h836q41 0 69 -29t28 -68q2 -17 -8 -28t-28 -11v0v0zM1074 -12h-836q-41 0 -69 28t-28 69
q0 15 11 27t28 12q15 0 26.5 -11.5t11.5 -27.5q0 -10 6.5 -16.5t16.5 -6.5h836q9 0 15.5 6.5t6.5 16.5q0 15 11.5 27t27.5 12q15 0 26.5 -11.5t11.5 -27.5q-4 -39 -34 -68t-68 -29v0v0zM270 226v39h58v235l-65 -23l-3 42l90 32h23v-283h48v-38h-151v-4zM537 403
q-17 22 -17 52q0 41 29 68.5t74 27.5q49 -2 77.5 -28t28.5 -71q0 -34 -17 -62.5t-56 -60.5q-5 -4 -18 -16.5t-25 -24.5t-22 -23h142v-39h-213v23q54 59 113 112q55 51 55 91q0 26 -16.5 41.5t-44.5 15.5q-26 0 -42 -14.5t-16 -36.5q0 -23 13 -35zM874 307q27 -48 68 -48
q28 0 46 17t18 44q0 54 -55 54h-22v39h22q45 0 45 48q0 22 -15 35t-39 13q-41 0 -65 -51l-35 22q34 68 103 68q44 0 72 -23.5t28 -63.5q0 -44 -42 -71q51 -20 51 -74q0 -45 -30 -72t-79 -27q-67 0 -103 61zM874 307z" />
    <glyph glyph-name="liebiao" unicode="&#xe602;" 
d="M931 647q0 -17 -12 -29.5t-29 -12.5h-756q-17 0 -29 12.5t-12 29.5v0q0 17 12 29t29 12h756q17 0 29 -12t12 -29v0zM931 384q0 -17 -12 -29t-29 -12h-756q-17 0 -29 12t-12 29v0q0 17 12 29t29 12h756q17 0 29 -12t12 -29v0zM931 121q0 -17 -12 -29t-29 -12h-756
q-17 0 -29 12t-12 29v0q0 17 12 29.5t29 12.5h756q17 0 29 -12t12 -30v0z" />
    <glyph glyph-name="arrow" unicode="&#xe600;" 
d="M667 514h-311l156 -259z" />
    <glyph glyph-name="money" unicode="&#xe60b;" 
d="M519 18q-104 0 -192 49t-139.5 134.5t-51.5 185.5t51.5 185.5t139.5 135t192 49.5t192 -49.5t139 -135t51 -185.5t-51 -185.5t-139 -134.5t-192 -49v0zM519 707q-90 0 -166.5 -43t-121 -116.5t-44.5 -160.5t44.5 -160.5t121 -116.5t166.5 -43t166.5 43t120.5 116.5
t44 160.5t-44 160.5t-120.5 116.5t-166.5 43zM653 394v-32h-117v-50h117v-31h-117v-105h-42v105h-117v31h117v50h-117v32h95l-110 178h48l106 -175l104 175h47l-109 -178h95z" />
    <glyph glyph-name="anquan" unicode="&#xe615;" 
d="M852 745h-25q-61 0 -115 10t-87.5 23t-60.5 29t-36 23.5t-12 10.5l-22 23l-21 -23q-3 -3 -12 -10.5t-36 -23.5t-60 -29t-87.5 -23t-115.5 -10h-25l-30 1v-433q0 -39 6 -73.5t29.5 -81t62.5 -86.5t110.5 -84t168.5 -80l10 -4l11 4q97 36 168.5 80t110.5 84t62 86.5
t29.5 81t6.5 73.5v433zM461 201l-195 178l52 43l104 -79q5 7 15.5 17.5t43 40.5t64 57t75.5 58t83 51l19 -23q-7 -6 -19 -17t-46.5 -47t-65.5 -74t-68 -94t-62 -111v0zM461 201z" />
    <glyph glyph-name="xuniji" unicode="&#xe60c;" 
d="M133 611q-17 0 -29.5 11.5t-12.5 27.5v89q0 16 12.5 27.5t29.5 11.5h537q17 0 29.5 -11.5t12.5 -27.5v-89q0 -16 -12.5 -27.5t-29.5 -11.5h-537zM133 394q-17 0 -29.5 11.5t-12.5 27.5v89q0 16 12.5 27.5t29.5 11.5h537q17 0 29.5 -11.5t12.5 -27.5v-89
q0 -16 -12.5 -27.5t-29.5 -11.5h-537zM420 286q-55 -14 -96 -52t-43 -97t40 -131h-82h-64h-45q-28 0 -37 36v118v89v58q0 29 37 37l327 -1q-23 -14 -37 -57v0zM181 739q-17 0 -29 -12t-12 -29t12 -29t29 -12q16 0 28 12t12 29t-12 29t-28 12v0zM181 519q-17 0 -29 -12
t-12 -29t12 -28.5t29 -11.5q16 0 28 11.5t12 29.5q0 16 -12 28t-28 12v0zM854 218q80 -41 80 -109q0 -69 -80 -101h-441q-84 43 -84 121.5t54 96.5t79 11q5 70 56 84q61 5 90 -22q85 77 167 46t79 -127v0z" />
    <glyph glyph-name="beian" unicode="&#xe60d;" 
d="M763 824l129 -161v-192q-22 -147 -85 -237.5t-130 -139.5t-171 -83q-127 44 -201.5 120.5t-113 151t-61.5 185.5v221l135 135h498zM721 470q5 8 12 18.5t14 21.5q-53 2 -99 10t-85 21q36 19 65 42t51 49v31h-253q6 8 11 17q6 9 12 17l-35 15q-23 -40 -54.5 -76.5
t-73.5 -69.5q6 -6 13 -12t13 -13q21 18 41 37t38 39q15 -22 36.5 -41t49.5 -35q-43 -16 -93 -28.5t-108 -21.5q5 -9 9.5 -17t9.5 -16q65 11 121 26.5t102 35.5q42 -18 92 -30t111 -20v0zM679 247v217h-332v-217h33v21h265v-21h34zM380 437v-58h116v58h-116zM380 295h116v58
h-116v-58zM420 633h209q-23 -22 -50 -40.5t-61 -33.5q-30 14 -55 32.5t-43 41.5v0zM529 437v-58h116v58h-116zM529 295h116v58h-116v-58z" />
    <glyph glyph-name="shouye" unicode="&#xe632;" 
d="M519 832l-455 -460h144v-436h234l-1 292h145v-291h231v434h143z" />
  </font>
</defs>
</svg>
